ply
format ascii 1.0
comment This is a pyramid in the xy-plane with squarebasis 
comment composed by 4 triangles having an interior point
element vertex 121
property float x
property float y
property float z
element face 200
property list uchar int vertex_index
end_header
0.00000   0.00000   0.00000
0.00000   0.10000   0.00000
0.00000   0.20000   0.00000
0.00000   0.30000   0.00000
0.00000   0.40000   0.00000
0.00000   0.50000   0.00000
0.00000   0.60000   0.00000
0.00000   0.70000   0.00000
0.00000   0.80000   0.00000
0.00000   0.90000   0.00000
0.00000   1.00000   0.00000
0.10000   0.00000   0.00000
0.10000   0.10000   0.20713
0.10000   0.20000   0.72217
0.10000   0.30000   0.25113
0.10000   0.40000   0.27772
0.10000   0.50000   0.65911
0.10000   0.60000   0.50756
0.10000   0.70000   0.92269
0.10000   0.80000   0.51242
0.10000   0.90000   0.18385
0.10000   1.00000   0.00000
0.20000   0.00000   0.00000
0.20000   0.10000   0.83169
0.20000   0.20000   0.44703
0.20000   0.30000   0.15808
0.20000   0.40000   0.47793
0.20000   0.50000   0.97391
0.20000   0.60000   0.78929
0.20000   0.70000   0.92986
0.20000   0.80000   0.36964
0.20000   0.90000   0.26511
0.20000   1.00000   0.00000
0.30000   0.00000   0.00000
0.30000   0.10000   0.77377
0.30000   0.20000   0.04087
0.30000   0.30000   0.27013
0.30000   0.40000   0.45870
0.30000   0.50000   0.85520
0.30000   0.60000   0.79424
0.30000   0.70000   0.20823
0.30000   0.80000   0.36480
0.30000   0.90000   0.68761
0.30000   1.00000   0.00000
0.40000   0.00000   0.00000
0.40000   0.10000   0.73734
0.40000   0.20000   0.24320
0.40000   0.30000   0.15502
0.40000   0.40000   0.36578
0.40000   0.50000   0.08692
0.40000   0.60000   0.20911
0.40000   0.70000   0.88313
0.40000   0.80000   0.45536
0.40000   0.90000   0.04204
0.40000   1.00000   0.00000
0.50000   0.00000   0.00000
0.50000   0.10000   0.68949
0.50000   0.20000   0.46935
0.50000   0.30000   0.15956
0.50000   0.40000   0.59968
0.50000   0.50000   0.68083
0.50000   0.60000   0.71723
0.50000   0.70000   0.83031
0.50000   0.80000   0.84544
0.50000   0.90000   0.16062
0.50000   1.00000   0.00000
0.60000   0.00000   0.00000
0.60000   0.10000   0.27022
0.60000   0.20000   0.92371
0.60000   0.30000   0.91603
0.60000   0.40000   0.14584
0.60000   0.50000   0.26830
0.60000   0.60000   0.21672
0.60000   0.70000   0.80239
0.60000   0.80000   0.66674
0.60000   0.90000   0.91161
0.60000   1.00000   0.00000
0.70000   0.00000   0.00000
0.70000   0.10000   0.62376
0.70000   0.20000   0.82706
0.70000   0.30000   0.52249
0.70000   0.40000   0.02056
0.70000   0.50000   0.02988
0.70000   0.60000   0.29358
0.70000   0.70000   0.17739
0.70000   0.80000   0.39720
0.70000   0.90000   0.23530
0.70000   1.00000   0.00000
0.80000   0.00000   0.00000
0.80000   0.10000   0.53896
0.80000   0.20000   0.76440
0.80000   0.30000   0.99211
0.80000   0.40000   0.64778
0.80000   0.50000   0.96869
0.80000   0.60000   0.83529
0.80000   0.70000   0.03846
0.80000   0.80000   0.87654
0.80000   0.90000   0.83545
0.80000   1.00000   0.00000
0.90000   0.00000   0.00000
0.90000   0.10000   0.17864
0.90000   0.20000   0.06301
0.90000   0.30000   0.67330
0.90000   0.40000   0.07009
0.90000   0.50000   0.18853
0.90000   0.60000   0.07295
0.90000   0.70000   0.13455
0.90000   0.80000   0.03216
0.90000   0.90000   0.33857
0.90000   1.00000   0.00000
1.00000   0.00000   0.00000
1.00000   0.10000   0.00000
1.00000   0.20000   0.00000
1.00000   0.30000   0.00000
1.00000   0.40000   0.00000
1.00000   0.50000   0.00000
1.00000   0.60000   0.00000
1.00000   0.70000   0.00000
1.00000   0.80000   0.00000
1.00000   0.90000   0.00000
1.00000   1.00000   0.00000
3     0     1    11
3     1    11    12
3     1     2    12
3     2    12    13
3     2     3    13
3     3    13    14
3     3     4    14
3     4    14    15
3     4     5    15
3     5    15    16
3     5     6    16
3     6    16    17
3     6     7    17
3     7    17    18
3     7     8    18
3     8    18    19
3     8     9    19
3     9    19    20
3     9    10    20
3    10    20    21
3    11    12    22
3    12    22    23
3    12    13    23
3    13    23    24
3    13    14    24
3    14    24    25
3    14    15    25
3    15    25    26
3    15    16    26
3    16    26    27
3    16    17    27
3    17    27    28
3    17    18    28
3    18    28    29
3    18    19    29
3    19    29    30
3    19    20    30
3    20    30    31
3    20    21    31
3    21    31    32
3    22    23    33
3    23    33    34
3    23    24    34
3    24    34    35
3    24    25    35
3    25    35    36
3    25    26    36
3    26    36    37
3    26    27    37
3    27    37    38
3    27    28    38
3    28    38    39
3    28    29    39
3    29    39    40
3    29    30    40
3    30    40    41
3    30    31    41
3    31    41    42
3    31    32    42
3    32    42    43
3    33    34    44
3    34    44    45
3    34    35    45
3    35    45    46
3    35    36    46
3    36    46    47
3    36    37    47
3    37    47    48
3    37    38    48
3    38    48    49
3    38    39    49
3    39    49    50
3    39    40    50
3    40    50    51
3    40    41    51
3    41    51    52
3    41    42    52
3    42    52    53
3    42    43    53
3    43    53    54
3    44    45    55
3    45    55    56
3    45    46    56
3    46    56    57
3    46    47    57
3    47    57    58
3    47    48    58
3    48    58    59
3    48    49    59
3    49    59    60
3    49    50    60
3    50    60    61
3    50    51    61
3    51    61    62
3    51    52    62
3    52    62    63
3    52    53    63
3    53    63    64
3    53    54    64
3    54    64    65
3    55    56    66
3    56    66    67
3    56    57    67
3    57    67    68
3    57    58    68
3    58    68    69
3    58    59    69
3    59    69    70
3    59    60    70
3    60    70    71
3    60    61    71
3    61    71    72
3    61    62    72
3    62    72    73
3    62    63    73
3    63    73    74
3    63    64    74
3    64    74    75
3    64    65    75
3    65    75    76
3    66    67    77
3    67    77    78
3    67    68    78
3    68    78    79
3    68    69    79
3    69    79    80
3    69    70    80
3    70    80    81
3    70    71    81
3    71    81    82
3    71    72    82
3    72    82    83
3    72    73    83
3    73    83    84
3    73    74    84
3    74    84    85
3    74    75    85
3    75    85    86
3    75    76    86
3    76    86    87
3    77    78    88
3    78    88    89
3    78    79    89
3    79    89    90
3    79    80    90
3    80    90    91
3    80    81    91
3    81    91    92
3    81    82    92
3    82    92    93
3    82    83    93
3    83    93    94
3    83    84    94
3    84    94    95
3    84    85    95
3    85    95    96
3    85    86    96
3    86    96    97
3    86    87    97
3    87    97    98
3    88    89    99
3    89    99   100
3    89    90   100
3    90   100   101
3    90    91   101
3    91   101   102
3    91    92   102
3    92   102   103
3    92    93   103
3    93   103   104
3    93    94   104
3    94   104   105
3    94    95   105
3    95   105   106
3    95    96   106
3    96   106   107
3    96    97   107
3    97   107   108
3    97    98   108
3    98   108   109
3    99   100   110
3   100   110   111
3   100   101   111
3   101   111   112
3   101   102   112
3   102   112   113
3   102   103   113
3   103   113   114
3   103   104   114
3   104   114   115
3   104   105   115
3   105   115   116
3   105   106   116
3   106   116   117
3   106   107   117
3   107   117   118
3   107   108   118
3   108   118   119
3   108   109   119
3   109   119   120
